<svg width="37" height="38" viewBox="0 0 37 38" fill="none" xmlns="http://www.w3.org/2000/svg">
<path d="M18.073 24.3771C15.0245 24.3771 12.5585 22.0021 12.5585 19.0191C12.5585 16.0361 15.0245 13.6421 18.073 13.6421C21.1215 13.6421 23.5292 16.0361 23.5292 19.0191C23.5292 22.0021 21.1215 24.3771 18.073 24.3771Z" fill="#00825A"/>
<path opacity="0.4" d="M35.5872 23.503C35.2183 22.933 34.6941 22.363 34.0145 22.002C33.4708 21.736 33.1213 21.299 32.8106 20.786C31.8203 19.152 32.4028 17.005 34.0533 16.036C35.995 14.953 36.6164 12.54 35.4902 10.659L34.1892 8.417C33.0824 6.536 30.6553 5.871 28.733 6.973C27.0243 7.885 24.8301 7.277 23.8398 5.662C23.5292 5.13 23.3544 4.56 23.3933 3.99C23.4515 3.249 23.2185 2.546 22.869 1.976C22.1506 0.798 20.8496 0 19.4127 0H16.6749C15.2575 0.038 13.9565 0.798 13.2381 1.976C12.8691 2.546 12.6555 3.249 12.6944 3.99C12.7332 4.56 12.5585 5.13 12.2478 5.662C11.2575 7.277 9.06337 7.885 7.37407 6.973C5.43235 5.871 3.02462 6.536 1.89842 8.417L0.597472 10.659C-0.509308 12.54 0.112042 14.953 2.03434 16.036C3.68481 17.005 4.26732 19.152 3.29646 20.786C2.96637 21.299 2.61686 21.736 2.07318 22.002C1.41299 22.363 0.830478 22.933 0.519803 23.503C-0.198633 24.681 -0.159798 26.163 0.558638 27.398L1.89842 29.678C2.61686 30.894 3.95665 31.654 5.35468 31.654C6.01487 31.654 6.79156 31.464 7.41291 31.084C7.89834 30.761 8.48085 30.647 9.12162 30.647C11.0439 30.647 12.6555 32.224 12.6944 34.105C12.6944 36.29 14.4808 38 16.7332 38H19.3739C21.6069 38 23.3933 36.29 23.3933 34.105C23.4515 32.224 25.0631 30.647 26.9854 30.647C27.6068 30.647 28.1893 30.761 28.6941 31.084C29.3155 31.464 30.0728 31.654 30.7524 31.654C32.131 31.654 33.4708 30.894 34.1892 29.678L35.5484 27.398C36.2474 26.125 36.3057 24.681 35.5872 23.503Z" fill="#00825A"/>
</svg>
