<svg width="80" height="80" viewBox="0 0 80 80" fill="none" xmlns="http://www.w3.org/2000/svg">
<circle cx="40" cy="40" r="40" fill="white" fill-opacity="0.4"/>
<circle cx="40" cy="40" r="39" stroke="#00306E" stroke-opacity="0.08" stroke-width="2"/>
<path opacity="0.4" d="M40.0001 27.8039V57C39.6941 57 39.3701 56.9453 39.1181 56.7996L39.0461 56.7632C35.5901 54.8508 29.56 52.8473 25.654 52.3191L25.132 52.2463C23.404 52.0277 22 50.3885 22 48.64V26.6383C22 24.4709 23.746 22.8317 25.888 23.0138C29.668 23.3235 35.3921 25.2541 38.5961 27.2758L39.0461 27.549C39.3161 27.7129 39.6581 27.8039 40.0001 27.8039Z" fill="#3270FC"/>
<path d="M58.0001 26.6564V48.6399C58.0001 50.3884 56.5961 52.0276 54.8681 52.2462L54.2741 52.319C50.3501 52.8472 44.302 54.8689 40.846 56.7995C40.612 56.9452 40.324 56.9998 40 56.9998V27.8038C40.342 27.8038 40.684 27.7127 40.954 27.5488L41.26 27.3485C44.464 25.3086 50.2061 23.3597 53.9861 23.0319H54.0941C56.2361 22.8498 58.0001 24.4708 58.0001 26.6564Z" fill="#3270FC"/>
<path d="M32.3502 34.9801H28.3002C27.5622 34.9801 26.9502 34.3608 26.9502 33.614C26.9502 32.8673 27.5622 32.248 28.3002 32.248H32.3502C33.0882 32.248 33.7002 32.8673 33.7002 33.614C33.7002 34.3608 33.0882 34.9801 32.3502 34.9801Z" fill="#3270FC"/>
<path d="M33.7002 40.444H28.3002C27.5622 40.444 26.9502 39.8248 26.9502 39.078C26.9502 38.3313 27.5622 37.712 28.3002 37.712H33.7002C34.4382 37.712 35.0502 38.3313 35.0502 39.078C35.0502 39.8248 34.4382 40.444 33.7002 40.444Z" fill="#3270FC"/>
</svg>
